ffmpeg started on 2025-05-28 at 11:08:03
Report written to "D:\Convert\FFMetrics\reports\ssim_report-6.txt"
Log level: 32
Command line:
ffmpeg -hide_banner -nostdin -i "G:\\\xc0\xed\xe8\xec\xe5\\\xce\xed\xe3\xee\xe8\xed\xe3\xe8\\!_36_\xce\xf1\xe5\xed\xfc_2024\\JamClub\\MF \xcf\xf0\xe8\xe7\xf0\xe0\xea\\\xd2\xc2-2\\[JamClub] MF Ghost 2 - 08_HEVC.mkv" -i "G:\\\xc0\xed\xe8\xec\xe5\\\xce\xed\xe3\xee\xe8\xed\xe3\xe8\\!_36_\xce\xf1\xe5\xed\xfc_2024\\JamClub\\MF \xcf\xf0\xe8\xe7\xf0\xe0\xea\\\xd2\xc2-2\\[JamClub] MF Ghost 2 - 08.mp4" -lavfi "[0:v]settb=AVTB,setpts=PTS-STARTPTS,format=pix_fmts=yuv420p10,fps=24000/1001,scale=1920:1080:flags=bicubic[main];[1:v]settb=AVTB,setpts=PTS-STARTPTS,format=pix_fmts=yuv420p,fps=24000/1001,scale=1920:1080:flags=bicubic[ref];[main][ref]ssim=eof_action=endall:stats_file='D\\:/Convert/FFMetrics/logs/ssim_logfile-6.txt'" -f null -
Input #0, matroska,webm, from 'G:\Аниме\Онгоинги\!_36_Осень_2024\JamClub\MF Призрак\ТВ-2\[JamClub] MF Ghost 2 - 08_HEVC.mkv':
  Metadata:
    COMPATIBLE_BRANDS: isomiso2avc1mp41
    MAJOR_BRAND     : isom
    MINOR_VERSION   : 512
    ENCODER         : Lavf61.7.100
  Duration: 00:24:02.33, start: -0.001000, bitrate: 1879 kb/s
  Stream #0:0: Video: hevc (Main 10), yuv420p10le(tv, bt709, progressive), 1920x1080 [SAR 1:1 DAR 16:9], 23.98 fps, 23.98 tbr, 1k tbn (default)
      Metadata:
        HANDLER_NAME    : VideoHandler
        VENDOR_ID       : [0][0][0][0]
        ENCODER         : Lavc61.19.100 libx265
        BPS             : 1679706
        DURATION        : 00:24:02.190708333
        NUMBER_OF_FRAMES: 34578
        NUMBER_OF_BYTES : 302807063
        _STATISTICS_WRITING_APP: mkvpropedit v66.0.0 ('Josie') 64-bit
        _STATISTICS_WRITING_DATE_UTC: 2025-05-27 13:41:16
        _STATISTICS_TAGS: BPS DURATION NUMBER_OF_FRAMES NUMBER_OF_BYTES
  Stream #0:1(eng): Audio: aac (LC), 48000 Hz, stereo, fltp (default)
      Metadata:
        HANDLER_NAME    : SoundHandler
        VENDOR_ID       : [0][0][0][0]
        ENCODER         : Lavc61.19.100 aac
        BPS             : 195827
        DURATION        : 00:24:02.285000000
        NUMBER_OF_FRAMES: 67608
        NUMBER_OF_BYTES : 35304880
        _STATISTICS_WRITING_APP: mkvpropedit v66.0.0 ('Josie') 64-bit
        _STATISTICS_WRITING_DATE_UTC: 2025-05-27 13:41:16
        _STATISTICS_TAGS: BPS DURATION NUMBER_OF_FRAMES NUMBER_OF_BYTES
Input #1, mov,mp4,m4a,3gp,3g2,mj2, from 'G:\Аниме\Онгоинги\!_36_Осень_2024\JamClub\MF Призрак\ТВ-2\[JamClub] MF Ghost 2 - 08.mp4':
  Metadata:
    major_brand     : isom
    minor_version   : 512
    compatible_brands: isomiso2avc1mp41
    encoder         : Lavf60.16.100
  Duration: 00:24:02.31, start: 0.000000, bitrate: 4850 kb/s
  Stream #1:0[0x1](und): Video: h264 (High) (avc1 / 0x31637661), yuv420p(progressive), 1920x1080 [SAR 1:1 DAR 16:9], 4653 kb/s, 23.98 fps, 23.98 tbr, 90k tbn (default)
      Metadata:
        handler_name    : VideoHandler
        vendor_id       : [0][0][0][0]
  Stream #1:1[0x2](eng): Audio: aac (LC) (mp4a / 0x6134706D), 48000 Hz, stereo, fltp, 191 kb/s (default)
      Metadata:
        handler_name    : SoundHandler
        vendor_id       : [0][0][0][0]
Stream mapping:
  Stream #0:0 (hevc) -> settb:default
  Stream #1:0 (h264) -> settb:default
  ssim:default -> Stream #0:0 (wrapped_avframe)
  Stream #0:1 -> #0:1 (aac (native) -> pcm_s16le (native))
Output #0, null, to 'pipe:':
  Metadata:
    COMPATIBLE_BRANDS: isomiso2avc1mp41
    MAJOR_BRAND     : isom
    MINOR_VERSION   : 512
    encoder         : Lavf61.7.100
  Stream #0:0: Video: wrapped_avframe, yuv420p10le(tv, bt709, progressive), 1920x1080 [SAR 1:1 DAR 16:9], q=2-31, 200 kb/s, 23.98 fps, 23.98 tbn
      Metadata:
        encoder         : Lavc61.19.100 wrapped_avframe
  Stream #0:1(eng): Audio: pcm_s16le, 48000 Hz, stereo, s16, 1536 kb/s (default)
      Metadata:
        HANDLER_NAME    : SoundHandler
        VENDOR_ID       : [0][0][0][0]
        _STATISTICS_TAGS: BPS DURATION NUMBER_OF_FRAMES NUMBER_OF_BYTES
        BPS             : 195827
        DURATION        : 00:24:02.285000000
        NUMBER_OF_FRAMES: 67608
        NUMBER_OF_BYTES : 35304880
        _STATISTICS_WRITING_APP: mkvpropedit v66.0.0 ('Josie') 64-bit
        _STATISTICS_WRITING_DATE_UTC: 2025-05-27 13:41:16
        encoder         : Lavc61.19.100 pcm_s16le
frame=  103 fps=0.0 q=-0.0 size=N/A time=00:00:04.29 bitrate=N/A speed= 8.3x    frame=  257 fps=250 q=-0.0 size=N/A time=00:00:10.71 bitrate=N/A speed=10.4x    frame=  438 fps=282 q=-0.0 size=N/A time=00:00:18.26 bitrate=N/A speed=11.8x    frame=  672 fps=326 q=-0.0 size=N/A time=00:00:28.02 bitrate=N/A speed=13.6x    frame=  887 fps=343 q=-0.0 size=N/A time=00:00:36.99 bitrate=N/A speed=14.3x    frame= 1098 fps=355 q=-0.0 size=N/A time=00:00:45.79 bitrate=N/A speed=14.8x    frame= 1284 fps=355 q=-0.0 size=N/A time=00:00:53.55 bitrate=N/A speed=14.8x    frame= 1511 fps=367 q=-0.0 size=N/A time=00:01:03.02 bitrate=N/A speed=15.3x    frame= 1694 fps=365 q=-0.0 size=N/A time=00:01:10.65 bitrate=N/A speed=15.2x    frame= 1845 fps=358 q=-0.0 size=N/A time=00:01:16.95 bitrate=N/A speed=14.9x    frame= 2023 fps=357 q=-0.0 size=N/A time=00:01:24.37 bitrate=N/A speed=14.9x    frame= 2200 fps=356 q=-0.0 size=N/A time=00:01:31.75 bitrate=N/A speed=14.8x    frame= 2378 fps=355 q=-0.0 size=N/A time=00:01:39.18 bitrate=N/A speed=14.8x    frame= 2567 fps=356 q=-0.0 size=N/A time=00:01:47.06 bitrate=N/A speed=14.8x    frame= 2746 fps=355 q=-0.0 size=N/A time=00:01:54.53 bitrate=N/A speed=14.8x    frame= 2945 fps=357 q=-0.0 size=N/A time=00:02:02.83 bitrate=N/A speed=14.9x    frame= 3086 fps=352 q=-0.0 size=N/A time=00:02:08.71 bitrate=N/A speed=14.7x    frame= 3231 fps=348 q=-0.0 size=N/A time=00:02:14.75 bitrate=N/A speed=14.5x    frame= 3386 fps=346 q=-0.0 size=N/A time=00:02:21.22 bitrate=N/A speed=14.4x    frame= 3546 fps=344 q=-0.0 size=N/A time=00:02:27.89 bitrate=N/A speed=14.3x    frame= 3679 fps=340 q=-0.0 size=N/A time=00:02:33.44 bitrate=N/A speed=14.2x    frame= 3822 fps=337 q=-0.0 size=N/A time=00:02:39.40 bitrate=N/A speed=14.1x    frame= 4000 fps=337 q=-0.0 size=N/A time=00:02:46.83 bitrate=N/A speed=14.1x    frame= 4218 fps=341 q=-0.0 size=N/A time=00:02:55.92 bitrate=N/A speed=14.2x    frame= 4397 fps=341 q=-0.0 size=N/A time=00:03:03.39 bitrate=N/A speed=14.2x    frame= 4560 fps=340 q=-0.0 size=N/A time=00:03:10.19 bitrate=N/A speed=14.2x    frame= 4772 fps=343 q=-0.0 size=N/A time=00:03:19.03 bitrate=N/A speed=14.3x    frame= 5004 fps=346 q=-0.0 size=N/A time=00:03:28.70 bitrate=N/A speed=14.4x    frame= 5213 fps=349 q=-0.0 size=N/A time=00:03:37.42 bitrate=N/A speed=14.5x    frame= 5396 fps=349 q=-0.0 size=N/A time=00:03:45.05 bitrate=N/A speed=14.6x    frame= 5604 fps=350 q=-0.0 size=N/A time=00:03:53.73 bitrate=N/A speed=14.6x    frame= 5785 fps=351 q=-0.0 size=N/A time=00:04:01.28 bitrate=N/A speed=14.6x    frame= 5999 fps=352 q=-0.0 size=N/A time=00:04:10.20 bitrate=N/A speed=14.7x    frame= 6194 fps=353 q=-0.0 size=N/A time=00:04:18.34 bitrate=N/A speed=14.7x    frame= 6409 fps=355 q=-0.0 size=N/A time=00:04:27.30 bitrate=N/A speed=14.8x    frame= 6628 fps=357 q=-0.0 size=N/A time=00:04:36.44 bitrate=N/A speed=14.9x    frame= 6850 fps=359 q=-0.0 size=N/A time=00:04:45.70 bitrate=N/A speed=  15x    frame= 7084 fps=362 q=-0.0 size=N/A time=00:04:55.46 bitrate=N/A speed=15.1x    frame= 7311 fps=363 q=-0.0 size=N/A time=00:05:04.92 bitrate=N/A speed=15.2x    frame= 7511 fps=364 q=-0.0 size=N/A time=00:05:13.27 bitrate=N/A speed=15.2x    frame= 7717 fps=365 q=-0.0 size=N/A time=00:05:21.86 bitrate=N/A speed=15.2x    frame= 7944 fps=367 q=-0.0 size=N/A time=00:05:31.33 bitrate=N/A speed=15.3x    frame= 8156 fps=368 q=-0.0 size=N/A time=00:05:40.17 bitrate=N/A speed=15.3x    frame= 8370 fps=369 q=-0.0 size=N/A time=00:05:49.09 bitrate=N/A speed=15.4x    frame= 8562 fps=369 q=-0.0 size=N/A time=00:05:57.10 bitrate=N/A speed=15.4x    frame= 8747 fps=369 q=-0.0 size=N/A time=00:06:04.82 bitrate=N/A speed=15.4x    frame= 8942 fps=369 q=-0.0 size=N/A time=00:06:12.95 bitrate=N/A speed=15.4x    frame= 9142 fps=369 q=-0.0 size=N/A time=00:06:21.29 bitrate=N/A speed=15.4x    frame= 9376 fps=371 q=-0.0 size=N/A time=00:06:31.05 bitrate=N/A speed=15.5x    frame= 9585 fps=372 q=-0.0 size=N/A time=00:06:39.77 bitrate=N/A speed=15.5x    frame= 9797 fps=373 q=-0.0 size=N/A time=00:06:48.61 bitrate=N/A speed=15.5x    frame=10035 fps=374 q=-0.0 size=N/A time=00:06:58.54 bitrate=N/A speed=15.6x    frame=10225 fps=374 q=-0.0 size=N/A time=00:07:06.46 bitrate=N/A speed=15.6x    frame=10445 fps=375 q=-0.0 size=N/A time=00:07:15.64 bitrate=N/A speed=15.6x    frame=10711 fps=378 q=-0.0 size=N/A time=00:07:26.73 bitrate=N/A speed=15.8x    frame=10930 fps=379 q=-0.0 size=N/A time=00:07:35.87 bitrate=N/A speed=15.8x    frame=11175 fps=380 q=-0.0 size=N/A time=00:07:46.09 bitrate=N/A speed=15.9x    frame=11366 fps=380 q=-0.0 size=N/A time=00:07:54.05 bitrate=N/A speed=15.9x    frame=11591 fps=381 q=-0.0 size=N/A time=00:08:03.44 bitrate=N/A speed=15.9x    frame=11817 fps=382 q=-0.0 size=N/A time=00:08:12.86 bitrate=N/A speed=15.9x    frame=12037 fps=383 q=-0.0 size=N/A time=00:08:22.04 bitrate=N/A speed=  16x    frame=12265 fps=384 q=-0.0 size=N/A time=00:08:31.55 bitrate=N/A speed=  16x    frame=12498 fps=385 q=-0.0 size=N/A time=00:08:41.27 bitrate=N/A speed=  16x    frame=12708 fps=385 q=-0.0 size=N/A time=00:08:50.02 bitrate=N/A speed=16.1x    frame=12889 fps=385 q=-0.0 size=N/A time=00:08:57.57 bitrate=N/A speed=  16x    frame=13096 fps=385 q=-0.0 size=N/A time=00:09:06.21 bitrate=N/A speed=16.1x    frame=13327 fps=386 q=-0.0 size=N/A time=00:09:15.84 bitrate=N/A speed=16.1x    frame=13472 fps=384 q=-0.0 size=N/A time=00:09:21.89 bitrate=N/A speed=  16x    frame=13701 fps=385 q=-0.0 size=N/A time=00:09:31.44 bitrate=N/A speed=16.1x    frame=13950 fps=387 q=-0.0 size=N/A time=00:09:41.83 bitrate=N/A speed=16.1x    frame=14214 fps=388 q=-0.0 size=N/A time=00:09:52.84 bitrate=N/A speed=16.2x    frame=14414 fps=388 q=-0.0 size=N/A time=00:10:01.18 bitrate=N/A speed=16.2x    frame=14652 fps=389 q=-0.0 size=N/A time=00:10:11.11 bitrate=N/A speed=16.2x    frame=14919 fps=391 q=-0.0 size=N/A time=00:10:22.24 bitrate=N/A speed=16.3x    frame=15170 fps=392 q=-0.0 size=N/A time=00:10:32.71 bitrate=N/A speed=16.4x    frame=15397 fps=393 q=-0.0 size=N/A time=00:10:42.18 bitrate=N/A speed=16.4x    frame=15655 fps=394 q=-0.0 size=N/A time=00:10:52.94 bitrate=N/A speed=16.4x    frame=15914 fps=396 q=-0.0 size=N/A time=00:11:03.74 bitrate=N/A speed=16.5x    frame=16166 fps=397 q=-0.0 size=N/A time=00:11:14.25 bitrate=N/A speed=16.6x    frame=16433 fps=398 q=-0.0 size=N/A time=00:11:25.39 bitrate=N/A speed=16.6x    frame=16661 fps=399 q=-0.0 size=N/A time=00:11:34.90 bitrate=N/A speed=16.6x    frame=16854 fps=399 q=-0.0 size=N/A time=00:11:42.95 bitrate=N/A speed=16.6x    frame=17109 fps=400 q=-0.0 size=N/A time=00:11:53.58 bitrate=N/A speed=16.7x    frame=17369 fps=401 q=-0.0 size=N/A time=00:12:04.43 bitrate=N/A speed=16.7x    frame=17647 fps=403 q=-0.0 size=N/A time=00:12:16.02 bitrate=N/A speed=16.8x    frame=17929 fps=404 q=-0.0 size=N/A time=00:12:27.78 bitrate=N/A speed=16.9x    frame=18189 fps=405 q=-0.0 size=N/A time=00:12:38.63 bitrate=N/A speed=16.9x    frame=18450 fps=407 q=-0.0 size=N/A time=00:12:49.51 bitrate=N/A speed=  17x    frame=18718 fps=408 q=-0.0 size=N/A time=00:13:00.69 bitrate=N/A speed=  17x    frame=18959 fps=409 q=-0.0 size=N/A time=00:13:10.74 bitrate=N/A speed=  17x    frame=19215 fps=409 q=-0.0 size=N/A time=00:13:21.42 bitrate=N/A speed=17.1x    frame=19452 fps=410 q=-0.0 size=N/A time=00:13:31.31 bitrate=N/A speed=17.1x    frame=19689 fps=411 q=-0.0 size=N/A time=00:13:41.19 bitrate=N/A speed=17.1x    frame=19930 fps=411 q=-0.0 size=N/A time=00:13:51.24 bitrate=N/A speed=17.2x    frame=20173 fps=412 q=-0.0 size=N/A time=00:14:01.38 bitrate=N/A speed=17.2x    frame=20442 fps=413 q=-0.0 size=N/A time=00:14:12.64 bitrate=N/A speed=17.2x    frame=20723 fps=414 q=-0.0 size=N/A time=00:14:24.32 bitrate=N/A speed=17.3x    frame=20964 fps=415 q=-0.0 size=N/A time=00:14:34.37 bitrate=N/A speed=17.3x    frame=21212 fps=415 q=-0.0 size=N/A time=00:14:44.71 bitrate=N/A speed=17.3x    frame=21417 fps=415 q=-0.0 size=N/A time=00:14:53.26 bitrate=N/A speed=17.3x    frame=21676 fps=416 q=-0.0 size=N/A time=00:15:04.06 bitrate=N/A speed=17.4x    frame=21934 fps=417 q=-0.0 size=N/A time=00:15:14.83 bitrate=N/A speed=17.4x    frame=22214 fps=418 q=-0.0 size=N/A time=00:15:26.50 bitrate=N/A speed=17.4x    frame=22493 fps=419 q=-0.0 size=N/A time=00:15:38.14 bitrate=N/A speed=17.5x    frame=22771 fps=420 q=-0.0 size=N/A time=00:15:49.74 bitrate=N/A speed=17.5x    frame=23016 fps=421 q=-0.0 size=N/A time=00:15:59.95 bitrate=N/A speed=17.6x    frame=23291 fps=422 q=-0.0 size=N/A time=00:16:11.42 bitrate=N/A speed=17.6x    frame=23561 fps=423 q=-0.0 size=N/A time=00:16:22.69 bitrate=N/A speed=17.6x    frame=23825 fps=424 q=-0.0 size=N/A time=00:16:33.70 bitrate=N/A speed=17.7x    frame=24021 fps=423 q=-0.0 size=N/A time=00:16:41.87 bitrate=N/A speed=17.7x    frame=24233 fps=423 q=-0.0 size=N/A time=00:16:50.71 bitrate=N/A speed=17.7x    frame=24439 fps=423 q=-0.0 size=N/A time=00:16:59.30 bitrate=N/A speed=17.6x    frame=24648 fps=423 q=-0.0 size=N/A time=00:17:08.02 bitrate=N/A speed=17.6x    frame=24874 fps=423 q=-0.0 size=N/A time=00:17:17.45 bitrate=N/A speed=17.6x    frame=25094 fps=423 q=-0.0 size=N/A time=00:17:26.62 bitrate=N/A speed=17.6x    frame=25311 fps=423 q=-0.0 size=N/A time=00:17:35.67 bitrate=N/A speed=17.6x    frame=25536 fps=423 q=-0.0 size=N/A time=00:17:45.06 bitrate=N/A speed=17.7x    frame=25764 fps=423 q=-0.0 size=N/A time=00:17:54.57 bitrate=N/A speed=17.7x    frame=25988 fps=423 q=-0.0 size=N/A time=00:18:03.91 bitrate=N/A speed=17.7x    frame=26226 fps=424 q=-0.0 size=N/A time=00:18:13.84 bitrate=N/A speed=17.7x    frame=26447 fps=424 q=-0.0 size=N/A time=00:18:23.06 bitrate=N/A speed=17.7x    frame=26699 fps=424 q=-0.0 size=N/A time=00:18:33.57 bitrate=N/A speed=17.7x    frame=26949 fps=425 q=-0.0 size=N/A time=00:18:43.99 bitrate=N/A speed=17.7x    frame=27211 fps=426 q=-0.0 size=N/A time=00:18:54.92 bitrate=N/A speed=17.7x    frame=27475 fps=426 q=-0.0 size=N/A time=00:19:05.93 bitrate=N/A speed=17.8x    frame=27731 fps=427 q=-0.0 size=N/A time=00:19:16.61 bitrate=N/A speed=17.8x    frame=27957 fps=427 q=-0.0 size=N/A time=00:19:26.03 bitrate=N/A speed=17.8x    frame=28156 fps=427 q=-0.0 size=N/A time=00:19:34.33 bitrate=N/A speed=17.8x    frame=28403 fps=427 q=-0.0 size=N/A time=00:19:44.64 bitrate=N/A speed=17.8x    frame=28626 fps=427 q=-0.0 size=N/A time=00:19:53.94 bitrate=N/A speed=17.8x    frame=28871 fps=427 q=-0.0 size=N/A time=00:20:04.16 bitrate=N/A speed=17.8x    frame=29092 fps=427 q=-0.0 size=N/A time=00:20:13.37 bitrate=N/A speed=17.8x    frame=29345 fps=428 q=-0.0 size=N/A time=00:20:23.93 bitrate=N/A speed=17.8x    frame=29596 fps=428 q=-0.0 size=N/A time=00:20:34.39 bitrate=N/A speed=17.9x    frame=29842 fps=429 q=-0.0 size=N/A time=00:20:44.66 bitrate=N/A speed=17.9x    frame=30093 fps=429 q=-0.0 size=N/A time=00:20:55.12 bitrate=N/A speed=17.9x    frame=30335 fps=429 q=-0.0 size=N/A time=00:21:05.22 bitrate=N/A speed=17.9x    frame=30605 fps=430 q=-0.0 size=N/A time=00:21:16.48 bitrate=N/A speed=17.9x    frame=30872 fps=431 q=-0.0 size=N/A time=00:21:27.61 bitrate=N/A speed=  18x    frame=31101 fps=431 q=-0.0 size=N/A time=00:21:37.17 bitrate=N/A speed=  18x    frame=31337 fps=431 q=-0.0 size=N/A time=00:21:47.01 bitrate=N/A speed=  18x    frame=31597 fps=431 q=-0.0 size=N/A time=00:21:57.85 bitrate=N/A speed=  18x    frame=31844 fps=432 q=-0.0 size=N/A time=00:22:08.16 bitrate=N/A speed=  18x    frame=32076 fps=432 q=-0.0 size=N/A time=00:22:17.83 bitrate=N/A speed=  18x    frame=32281 fps=432 q=-0.0 size=N/A time=00:22:26.38 bitrate=N/A speed=  18x    frame=32494 fps=432 q=-0.0 size=N/A time=00:22:35.27 bitrate=N/A speed=  18x    frame=32723 fps=432 q=-0.0 size=N/A time=00:22:44.82 bitrate=N/A speed=  18x    frame=32929 fps=431 q=-0.0 size=N/A time=00:22:53.41 bitrate=N/A speed=  18x    frame=33118 fps=431 q=-0.0 size=N/A time=00:23:01.29 bitrate=N/A speed=  18x    frame=33352 fps=431 q=-0.0 size=N/A time=00:23:11.05 bitrate=N/A speed=  18x    frame=33580 fps=431 q=-0.0 size=N/A time=00:23:20.56 bitrate=N/A speed=  18x    frame=33802 fps=431 q=-0.0 size=N/A time=00:23:29.82 bitrate=N/A speed=  18x    frame=34013 fps=431 q=-0.0 size=N/A time=00:23:38.62 bitrate=N/A speed=  18x    frame=34260 fps=431 q=-0.0 size=N/A time=00:23:48.92 bitrate=N/A speed=  18x    frame=34466 fps=431 q=-0.0 size=N/A time=00:23:57.51 bitrate=N/A speed=  18x    [Parsed_ssim_10 @ 000002c0d97b1440] SSIM Y:0.992688 (21.359372) U:0.994241 (22.396479) V:0.994223 (22.382787) All:0.993202 (21.676389)
[out#0/null @ 000002c0d83b4ec0] video:14858KiB audio:270432KiB subtitle:0KiB other streams:0KiB global headers:0KiB muxing overhead: unknown
frame=34578 fps=431 q=-0.0 Lsize=N/A time=00:24:02.19 bitrate=N/A speed=  18x    
